<svg width="16" height="16" viewBox="0 0 16 16" fill="none" xmlns="http://www.w3.org/2000/svg">
<path fill-rule="evenodd" clip-rule="evenodd" d="M11.1663 1.33325C11.1663 1.05711 10.9425 0.833252 10.6663 0.833252C10.3902 0.833252 10.1663 1.05711 10.1663 1.33325V2.33325H5.83301V1.33325C5.83301 1.05711 5.60915 0.833252 5.33301 0.833252C5.05687 0.833252 4.83301 1.05711 4.83301 1.33325V2.33325H4.66667C3.19391 2.33325 2 3.52716 2 4.99992V11.9999C2 13.4727 3.19391 14.6666 4.66667 14.6666H11.3333C12.8061 14.6666 14 13.4727 14 11.9999V4.99992C14 3.52716 12.8061 2.33325 11.3333 2.33325H11.1663V1.33325ZM5.33333 5.49992C5.05719 5.49992 4.83333 5.72378 4.83333 5.99992C4.83333 6.27606 5.05719 6.49992 5.33333 6.49992H8C8.27614 6.49992 8.5 6.27606 8.5 5.99992C8.5 5.72378 8.27614 5.49992 8 5.49992H5.33333ZM4.83333 8.66659C4.83333 8.39044 5.05719 8.16659 5.33333 8.16659H10.6667C10.9428 8.16659 11.1667 8.39044 11.1667 8.66659C11.1667 8.94273 10.9428 9.16659 10.6667 9.16659H5.33333C5.05719 9.16659 4.83333 8.94273 4.83333 8.66659ZM5.33333 10.8333C5.05719 10.8333 4.83333 11.0571 4.83333 11.3333C4.83333 11.6094 5.05719 11.8333 5.33333 11.8333H10.6667C10.9428 11.8333 11.1667 11.6094 11.1667 11.3333C11.1667 11.0571 10.9428 10.8333 10.6667 10.8333H5.33333Z" fill="white"/>
</svg>
