<svg width="16" height="16" viewBox="0 0 16 16" fill="none" xmlns="http://www.w3.org/2000/svg">
<path d="M9.31761 2.03008C9.33526 1.96409 9.36575 1.90222 9.40732 1.84801C9.44889 1.7938 9.50073 1.74831 9.55989 1.71415C9.61904 1.67998 9.68435 1.65781 9.75208 1.64889C9.81981 1.63997 9.88863 1.64449 9.95462 1.66218C10.9186 1.9137 11.7981 2.41765 12.5026 3.12212C13.2071 3.82659 13.711 4.70612 13.9625 5.67012C13.9802 5.7361 13.9847 5.80492 13.9758 5.87265C13.9669 5.94038 13.9447 6.00569 13.9106 6.06485C13.8764 6.12401 13.8309 6.17585 13.7767 6.21742C13.7225 6.25899 13.6606 6.28947 13.5946 6.30713C13.5507 6.31866 13.5055 6.32456 13.4601 6.32468C13.3456 6.32471 13.2343 6.28695 13.1434 6.21725C13.0526 6.14756 12.9873 6.04983 12.9576 5.93922C12.7526 5.15215 12.3414 4.43401 11.7663 3.85884C11.1912 3.28367 10.4732 2.87228 9.68616 2.66709C9.62011 2.64951 9.55817 2.61908 9.50389 2.57754C9.44961 2.53599 9.40405 2.48416 9.36982 2.425C9.33559 2.36583 9.31336 2.3005 9.3044 2.23274C9.29544 2.16497 9.29993 2.09611 9.31761 2.03008ZM9.16616 4.74711C10.0625 4.98631 10.6384 5.56287 10.8776 6.45923C10.9073 6.56983 10.9726 6.66756 11.0634 6.73726C11.1543 6.80695 11.2656 6.84472 11.3801 6.84468C11.4255 6.84456 11.4707 6.83867 11.5146 6.82713C11.5806 6.80948 11.6425 6.779 11.6967 6.73743C11.7509 6.69586 11.7964 6.64401 11.8306 6.58485C11.8647 6.5257 11.8869 6.46039 11.8958 6.39266C11.9047 6.32493 11.9002 6.25611 11.8825 6.19012C11.5497 4.94471 10.68 4.075 9.43461 3.7422C9.36863 3.72457 9.29982 3.72011 9.23211 3.72908C9.16441 3.73805 9.09913 3.76026 9.04001 3.79445C8.98089 3.82865 8.92908 3.87415 8.88755 3.92836C8.84601 3.98258 8.81556 4.04444 8.79793 4.11043C8.78031 4.17641 8.77585 4.24522 8.78481 4.31293C8.79378 4.38063 8.81599 4.44591 8.85019 4.50503C8.88438 4.56415 8.92988 4.61596 8.9841 4.6575C9.03831 4.69903 9.10018 4.72948 9.16616 4.74711ZM13.8741 9.86461L10.812 8.49245L10.8035 8.48855C10.6446 8.42055 10.4711 8.39327 10.299 8.40916C10.1268 8.42504 9.96131 8.48361 9.81746 8.57955C9.80053 8.59073 9.78425 8.60289 9.76871 8.61595L8.1866 9.96471C7.1843 9.47785 6.14949 8.45085 5.66264 7.46154L7.01334 5.85537C7.02634 5.83912 7.03869 5.82287 7.0504 5.80532C7.14427 5.66186 7.20123 5.49743 7.2162 5.32664C7.23117 5.15585 7.20369 4.98401 7.1362 4.82641V4.81861L5.76014 1.75123C5.67092 1.54535 5.51751 1.37385 5.3228 1.26232C5.1281 1.15079 4.90255 1.10523 4.67983 1.13242C3.79905 1.24832 2.99058 1.68088 2.40542 2.3493C1.82025 3.01772 1.49841 3.87629 1.50001 4.76466C1.50001 9.92571 5.69904 14.1248 10.8601 14.1248C11.7484 14.1263 12.607 13.8045 13.2754 13.2193C13.9438 12.6342 14.3764 11.8257 14.4923 10.9449C14.5195 10.7223 14.4741 10.4968 14.3627 10.3021C14.2513 10.1074 14.0799 9.95393 13.8741 9.86461Z" fill="white"/>
</svg>
