<svg width="23" height="26" viewBox="0 0 23 26" fill="none" xmlns="http://www.w3.org/2000/svg">
<path d="M12.6805 0.590099C12.9069 0.0863767 13.4988 -0.138389 14.0026 0.0880676L22.2112 3.77841C22.7149 4.00487 22.9397 4.59679 22.7132 5.10051C22.4868 5.60423 21.8948 5.829 21.3911 5.60254L14.0946 2.32224L10.8143 9.61879C10.5878 10.1225 9.99587 10.3473 9.49215 10.1208C8.98843 9.89436 8.76366 9.30244 8.99012 8.79872L12.6805 0.590099ZM1.79879 21.9428C2.00447 22.148 2.22345 22.3277 2.45351 22.4831L1.33435 24.1406C0.998653 23.9139 0.681504 23.6533 0.386269 23.3587L1.79879 21.9428ZM4.00783 23.1447C4.55451 23.2655 5.14166 23.2961 5.75295 23.2323L5.96078 25.2214C5.15251 25.3059 4.34844 25.2683 3.57599 25.0975L4.00783 23.1447ZM7.51423 22.8021C8.06677 22.5911 8.62067 22.3077 9.162 21.9517L10.2609 23.6228C9.60388 24.0549 8.92125 24.4057 8.22776 24.6705L7.51423 22.8021ZM10.6311 20.7674C11.0698 20.3409 11.4881 19.8606 11.8765 19.3273L13.4932 20.5047C13.039 21.1284 12.5464 21.6948 12.025 22.2016L10.6311 20.7674ZM12.8803 17.6919C13.1643 17.1386 13.4186 16.5451 13.6368 15.9119L15.5276 16.5636C15.2789 17.2854 14.9875 17.9663 14.6598 18.605L12.8803 17.6919ZM14.1487 14.0345C14.2752 13.4193 14.3698 12.7742 14.4283 12.0994L16.4208 12.272C16.3558 13.0225 16.2502 13.7446 16.1078 14.4372L14.1487 14.0345ZM14.4935 10.1258C14.4818 9.48996 14.4396 8.83183 14.3637 8.15169L16.3514 7.92991C16.434 8.67007 16.4804 9.39004 16.4931 10.0892L14.4935 10.1258ZM14.058 6.17515C13.9338 5.54365 13.7817 4.89546 13.5997 4.23086L15.5286 3.70247C15.7232 4.41291 15.8866 5.10866 16.0204 5.78938L14.058 6.17515ZM13.0052 2.31345C12.896 1.99734 12.7802 1.67789 12.6577 1.35513L14.5274 0.645148C14.657 0.986526 14.7797 1.32496 14.8956 1.66042L13.0052 2.31345Z" fill="#2DB7CA"/>
</svg>
