<svg width="1920" height="900" viewBox="0 0 1920 900" fill="none" xmlns="http://www.w3.org/2000/svg">
<g clip-path="url(#clip0_1172_1459)">
<rect width="1920" height="900" fill="url(#paint0_linear_1172_1459)"/>
<circle opacity="0.2" cx="1201.44" cy="1201.44" r="1201.44" transform="matrix(-0.950284 -0.311384 -0.311384 0.950284 2016.91 233.923)" fill="url(#paint1_linear_1172_1459)"/>
<circle opacity="0.2" cx="977.953" cy="977.953" r="977.953" transform="matrix(-0.918499 -0.395422 -0.395422 0.918499 1697.07 482.757)" fill="url(#paint2_linear_1172_1459)"/>
<circle opacity="0.2" cx="633.831" cy="633.831" r="633.831" transform="matrix(-0.935063 -0.354481 -0.354481 0.935063 1146.71 487.362)" fill="url(#paint3_linear_1172_1459)"/>
<circle opacity="0.2" cx="445" cy="445" r="445" transform="matrix(-0.935063 -0.354481 -0.354481 0.935063 846.076 660.641)" fill="url(#paint4_linear_1172_1459)"/>
</g>
<defs>
<linearGradient id="paint0_linear_1172_1459" x1="160.5" y1="415.5" x2="1892" y2="725.5" gradientUnits="userSpaceOnUse">
<stop stop-color="#019AB6"/>
<stop offset="1" stop-color="#18B4CA"/>
</linearGradient>
<linearGradient id="paint1_linear_1172_1459" x1="1201.44" y1="0" x2="1201.44" y2="1251.39" gradientUnits="userSpaceOnUse">
<stop stop-color="white"/>
<stop offset="1" stop-color="white" stop-opacity="0"/>
</linearGradient>
<linearGradient id="paint2_linear_1172_1459" x1="977.953" y1="0" x2="977.953" y2="1018.61" gradientUnits="userSpaceOnUse">
<stop stop-color="white"/>
<stop offset="1" stop-color="white" stop-opacity="0"/>
</linearGradient>
<linearGradient id="paint3_linear_1172_1459" x1="633.831" y1="0" x2="633.831" y2="660.182" gradientUnits="userSpaceOnUse">
<stop stop-color="white"/>
<stop offset="1" stop-color="white" stop-opacity="0"/>
</linearGradient>
<linearGradient id="paint4_linear_1172_1459" x1="445" y1="0" x2="445" y2="463.5" gradientUnits="userSpaceOnUse">
<stop stop-color="white"/>
<stop offset="1" stop-color="white" stop-opacity="0"/>
</linearGradient>
<clipPath id="clip0_1172_1459">
<rect width="1920" height="900" fill="white"/>
</clipPath>
</defs>
</svg>
