<svg width="24" height="24" viewBox="0 0 24 24" fill="none" xmlns="http://www.w3.org/2000/svg">
<path opacity="0.4" d="M19.21 6.36001C18.17 4.26001 16.16 2.71001 13.83 2.20001C11.39 1.66001 8.88997 2.24001 6.97997 3.78001C5.05997 5.31001 3.96997 7.60001 3.96997 10.05C3.96997 12.64 5.51997 15.35 7.85997 16.92V17.75C7.84997 18.03 7.83997 18.46 8.17997 18.81C8.52997 19.17 9.04997 19.21 9.45997 19.21H14.59C15.13 19.21 15.54 19.06 15.82 18.78C16.2 18.39 16.19 17.89 16.18 17.62V16.92C19.28 14.83 21.23 10.42 19.21 6.36001Z" fill="#18B4CA"/>
<path d="M15.2599 21.9999C15.1999 21.9999 15.1299 21.9899 15.0699 21.9699C13.0599 21.3999 10.9499 21.3999 8.93991 21.9699C8.56991 22.0699 8.17991 21.8599 8.07991 21.4899C7.96991 21.1199 8.18991 20.7299 8.55991 20.6299C10.8199 19.9899 13.1999 19.9899 15.4599 20.6299C15.8299 20.7399 16.0499 21.1199 15.9399 21.4899C15.8399 21.7999 15.5599 21.9999 15.2599 21.9999Z" fill="#18B4CA"/>
<path d="M12.0001 13.8499C11.8701 13.8499 11.7401 13.8199 11.6301 13.7499C11.2701 13.5399 11.1501 13.0799 11.3501 12.7299L12.2001 11.2499H11.3601C10.8601 11.2499 10.4501 11.0299 10.2301 10.6599C10.0101 10.2799 10.0301 9.8199 10.2801 9.3799L11.3501 7.5199C11.5601 7.1599 12.0201 7.0399 12.3701 7.2399C12.7301 7.4499 12.8501 7.9099 12.6501 8.2599L11.8001 9.7499H12.6401C13.1401 9.7499 13.5501 9.9699 13.7701 10.3399C13.9901 10.7199 13.9701 11.1799 13.7201 11.6199L12.6501 13.4799C12.5101 13.7199 12.2601 13.8499 12.0001 13.8499Z" fill="#18B4CA"/>
</svg>
