<svg width="16" height="16" viewBox="0 0 16 16" fill="none" xmlns="http://www.w3.org/2000/svg">
<path opacity="0.4" d="M10.04 12.9266C9.62665 13.2066 9.10665 13.4399 8.47332 13.6466L7.41998 13.9932C4.77332 14.8466 3.37998 14.1332 2.51998 11.4866L1.66665 8.85324C0.813317 6.20657 1.51998 4.80657 4.16665 3.95324L5.21998 3.60657C5.49332 3.5199 5.75332 3.44657 5.99998 3.3999C5.79998 3.80657 5.63998 4.2999 5.50665 4.86657L4.85332 7.6599C4.19998 10.4466 5.05998 11.8199 7.83998 12.4799L8.95998 12.7466C9.34665 12.8399 9.70665 12.8999 10.04 12.9266Z" fill="white"/>
<path fill-rule="evenodd" clip-rule="evenodd" d="M14.4398 6.96009L13.7865 9.74675C13.2265 12.1534 12.1198 13.1268 10.0398 12.9268C9.70646 12.9001 9.34646 12.8401 8.95979 12.7468L7.83979 12.4801C5.05979 11.8201 4.19979 10.4468 4.85313 7.66009L5.50646 4.86675C5.63979 4.30009 5.79979 3.80675 5.99979 3.40009C6.77979 1.78675 8.10646 1.35342 10.3331 1.88009L11.4465 2.14009C14.2398 2.79342 15.0931 4.17342 14.4398 6.96009ZM11.6599 7.00675C11.625 7.00675 11.5901 7.00167 11.5507 6.99595L11.5332 6.99342L8.29992 6.17342C8.03325 6.10675 7.87325 5.83342 7.93992 5.56675C8.00658 5.30009 8.27992 5.14009 8.54658 5.20675L11.7799 6.02675C12.0466 6.09342 12.2066 6.36675 12.1399 6.63342C12.0866 6.85342 11.8799 7.00675 11.6599 7.00675ZM9.59724 9.24928C9.63659 9.255 9.67151 9.26008 9.70643 9.26008C9.93309 9.26008 10.1331 9.11341 10.1864 8.88675C10.2531 8.62008 10.0931 8.34675 9.82643 8.28008L7.88643 7.78675C7.61976 7.72008 7.34643 7.88008 7.27976 8.14675C7.21309 8.41341 7.37309 8.68675 7.63976 8.75342L9.57976 9.24675C9.58569 9.24759 9.59151 9.24844 9.59724 9.24928Z" fill="white"/>
</svg>
