<svg width="16" height="16" viewBox="0 0 16 16" fill="none" xmlns="http://www.w3.org/2000/svg">
<path fill-rule="evenodd" clip-rule="evenodd" d="M3.63954 2.74656L7.30621 1.37322C7.68621 1.23322 8.31288 1.23322 8.68621 1.37989L12.3529 2.75322C13.0529 3.01322 13.6262 3.84656 13.6262 4.59322V9.99322C13.6262 10.5332 13.2729 11.2399 12.8395 11.5666L9.17288 14.3066C8.52621 14.7932 7.46621 14.7932 6.81954 14.3066L3.15288 11.5666C2.71954 11.2466 2.36621 10.5332 2.36621 9.99322V4.59322C2.36621 3.83989 2.93954 3.01322 3.63954 2.74656ZM6.75349 9.33989C6.85349 9.43989 6.98016 9.48656 7.10682 9.48656C7.23349 9.48656 7.36016 9.43989 7.46016 9.33989L10.3268 6.47323C10.5202 6.27989 10.5202 5.95989 10.3268 5.76656C10.1335 5.57323 9.81349 5.57323 9.62016 5.76656L7.10682 8.27989L6.38682 7.55989C6.19349 7.36656 5.87349 7.36656 5.68016 7.55989C5.48682 7.75323 5.48682 8.07323 5.68016 8.26656L6.75349 9.33989Z" fill="white"/>
</svg>
