<svg width="24" height="24" viewBox="0 0 24 24" fill="none" xmlns="http://www.w3.org/2000/svg">
<path opacity="0.4" d="M16.19 2H7.81C4.17 2 2 4.17 2 7.81V16.18C2 19.83 4.17 22 7.81 22H16.18C19.82 22 21.99 19.83 21.99 16.19V7.81C22 4.17 19.83 2 16.19 2Z" fill="#18B4CA"/>
<path d="M6.87988 18.9001C6.46988 18.9001 6.12988 18.5601 6.12988 18.1501V16.0801C6.12988 15.6701 6.46988 15.3301 6.87988 15.3301C7.28988 15.3301 7.62988 15.6701 7.62988 16.0801V18.1501C7.62988 18.5701 7.28988 18.9001 6.87988 18.9001Z" fill="#18B4CA"/>
<path d="M12 18.9C11.59 18.9 11.25 18.56 11.25 18.15V14C11.25 13.59 11.59 13.25 12 13.25C12.41 13.25 12.75 13.59 12.75 14V18.15C12.75 18.57 12.41 18.9 12 18.9Z" fill="#18B4CA"/>
<path d="M17.1201 18.8999C16.7101 18.8999 16.3701 18.5599 16.3701 18.1499V11.9299C16.3701 11.5199 16.7101 11.1799 17.1201 11.1799C17.5301 11.1799 17.8701 11.5199 17.8701 11.9299V18.1499C17.8701 18.5699 17.5401 18.8999 17.1201 18.8999Z" fill="#18B4CA"/>
<path d="M17.87 5.8201C17.87 5.7701 17.85 5.7101 17.84 5.6601C17.83 5.6201 17.82 5.5701 17.81 5.5301C17.79 5.4901 17.76 5.4601 17.74 5.4201C17.71 5.3801 17.68 5.3301 17.64 5.3001C17.63 5.2901 17.63 5.2801 17.62 5.2801C17.59 5.2601 17.56 5.2501 17.53 5.2301C17.49 5.2001 17.44 5.1701 17.39 5.1501C17.34 5.1301 17.29 5.1301 17.24 5.1201C17.2 5.1101 17.17 5.1001 17.13 5.1001H14.2C13.79 5.1001 13.45 5.4401 13.45 5.8501C13.45 6.2601 13.79 6.6001 14.2 6.6001H15.45C13.07 9.1001 10.07 10.8601 6.69998 11.7101C6.29998 11.8101 6.04998 12.2201 6.14998 12.6201C6.22998 12.9601 6.53998 13.1901 6.87998 13.1901C6.93998 13.1901 6.99998 13.1801 7.05998 13.1701C10.63 12.2801 13.82 10.4301 16.37 7.8101V8.7801C16.37 9.1901 16.71 9.5301 17.12 9.5301C17.53 9.5301 17.87 9.1901 17.87 8.7801V5.8501C17.87 5.8401 17.87 5.8301 17.87 5.8201Z" fill="#18B4CA"/>
</svg>
