<svg width="113" height="36" viewBox="0 0 113 36" fill="none" xmlns="http://www.w3.org/2000/svg">
<path fill-rule="evenodd" clip-rule="evenodd" d="M12.3013 0.271467C11.3193 0.533106 9.48127 1.39832 8.78558 1.92623C7.97163 2.54387 6.52095 4.0154 6.16652 4.5826C5.97213 4.89417 5.83792 5.32394 5.86861 5.53772C5.93607 6.00747 6.31859 6.0181 8.32398 5.60566C9.07152 5.45176 10.203 5.32532 10.8383 5.32446L11.9935 5.32309L12.7513 4.10788C13.168 3.43945 13.9741 2.40078 14.5423 1.79961C15.339 0.957048 15.5502 0.626611 15.4636 0.357079C15.3662 0.0532335 15.2112 0.00896912 14.2795 0.0187484C13.6897 0.0249249 12.7997 0.138674 12.3013 0.271467ZM23.2936 0.12186C23.0229 0.389676 23.2379 0.768496 24.2176 1.75003C24.7895 2.32289 25.5948 3.34252 26.0071 4.01592L26.7568 5.24022L28.5655 5.35791C29.5601 5.4226 30.7642 5.59536 31.2411 5.74205C33.6946 6.49626 33.7027 5.38622 31.2612 3.00985C29.9132 1.6977 28.5924 0.922735 26.7578 0.367372C25.6236 0.0238951 23.5415 -0.123653 23.2936 0.12186ZM18.1493 1.40844C16.9844 2.06795 14.8546 4.13173 14.8546 4.60096C14.8546 5.29186 15.1458 5.33424 19.558 5.2862L23.7848 5.24022L23.8363 4.71969C23.8802 4.27721 23.7203 4.03565 22.7704 3.10798C21.5561 1.92211 20.001 0.874353 19.4498 0.87075C19.259 0.869549 18.6738 1.11146 18.1493 1.40844ZM61.7598 4.4716C58.4728 5.1227 55.9125 7.53441 54.8818 10.9503C54.3734 12.6354 54.2619 15.7954 54.6443 17.6788C55.265 20.7363 57.1406 23.3443 59.5056 24.4393C62.6705 25.9044 67.2627 25.657 69.8721 23.8808C71.617 22.6931 73.0162 20.5497 73.2338 18.7314L73.3394 17.8504H71.1884H69.0373L68.7325 18.7C68.078 20.5231 66.7241 21.4691 64.5949 21.5911C61.8531 21.7481 60.1711 20.4735 59.3263 17.5985C58.8784 16.074 58.9155 13.2805 59.4024 11.8749C59.8664 10.5355 60.5753 9.3882 60.839 9.54964C60.9479 9.61621 60.985 9.59133 60.9237 9.49302C60.7697 9.24648 61.2807 8.83404 62.2864 8.39328C63.2684 7.96299 64.6462 7.89642 65.8061 8.22343C66.8745 8.52453 68.3031 9.94373 68.7184 11.1164L69.0373 12.0171H71.1642H73.291V11.5336C73.291 10.0913 72.0477 7.66086 70.7325 6.53263C69.7455 5.68561 67.8276 4.74388 66.5632 4.48481C65.5245 4.27207 62.8049 4.26452 61.7598 4.4716ZM47.2808 14.848V25.0562H49.535H51.7892V14.848V4.63974H49.535H47.2808V14.848ZM80.5231 5.8836C80.2796 6.56763 79.4813 8.82597 78.7488 10.9019C78.0166 12.9779 76.9912 15.8731 76.4703 17.3357C75.351 20.4793 73.8112 24.9164 73.8112 24.9984C73.8112 25.0301 74.8475 25.0562 76.1142 25.0562H78.4169L79.1971 22.6114L79.977 20.1666H83.5141H87.0511L87.5264 21.6249C87.7877 22.4269 88.1306 23.5272 88.2884 24.0697L88.575 25.0562H90.9903C92.3187 25.0562 93.4056 25.031 93.4056 25.0003C93.4056 24.9696 93.2017 24.3713 92.9523 23.6706C92.703 22.9701 91.9953 20.9686 91.3796 19.2229C90.764 17.4772 90.0785 15.5471 89.8564 14.9338C89.6343 14.3204 88.7265 11.7534 87.8394 9.22915L86.2263 4.63974H83.5959H80.9656L80.5231 5.8836ZM95.313 14.848V25.0562H97.4785H99.6439L99.6893 18.5401L99.7348 12.024L100.545 13.1786C100.991 13.8138 101.515 14.5263 101.71 14.7622C101.904 14.9981 103.039 16.5422 104.232 18.1935C105.424 19.8449 106.791 21.7364 107.268 22.3969C107.745 23.0575 108.372 23.9259 108.661 24.3271L109.187 25.0562H111.094H113V14.848V4.63974H110.835H108.669L108.624 11.1948C108.578 17.7226 108.577 17.7476 108.246 17.2479C108.063 16.9716 107.914 16.6469 107.914 16.5261C107.914 16.4051 107.878 16.3411 107.835 16.3837C107.721 16.4969 106.389 14.7492 102.516 9.40072L99.0672 4.63974H97.1901H95.313V14.848ZM13.8827 7.3987C13.0374 7.64147 12.564 8.23887 10.7209 11.389C9.77345 13.0083 8.66662 14.894 8.26121 15.5792C7.46946 16.9183 7.21178 17.8305 7.41414 18.579C7.53032 19.009 8.17399 20.1437 11.589 25.94C13.2684 28.79 12.891 28.6591 19.4234 28.6591C24.8731 28.6591 25.322 28.603 26.013 27.8353C26.1896 27.6393 27.5015 25.4862 28.9284 23.0506C32.158 17.5385 32.1031 18.0956 29.7956 14.2761C28.9217 12.8293 28.2066 11.6217 28.2066 11.5927C28.2066 11.4889 26.3311 8.40152 26.1006 8.12598C25.9714 7.97157 25.5535 7.70461 25.172 7.53287C24.5502 7.25305 23.9582 7.22199 19.4498 7.23246C16.684 7.23898 14.1789 7.31378 13.8827 7.3987ZM7.93106 7.65777C6.77811 7.96436 4.9208 8.85256 4.52302 9.28749C3.86704 10.0046 4.64422 14.657 5.49528 15.1076C6.14085 15.4495 6.19582 15.3795 8.7724 10.9277C9.63802 9.43194 10.3462 8.11551 10.3462 8.00245C10.3462 7.3601 9.50242 7.23983 7.93106 7.65777ZM28.5829 7.68505C28.497 7.85027 28.4662 8.09475 28.5144 8.22857C28.6966 8.73607 32.2343 14.691 32.5338 14.9947C33.4336 15.9069 34.2881 14.2145 34.4107 11.2782C34.4799 9.62015 34.4539 9.39729 34.1652 9.17219C33.1638 8.39208 30.4343 7.38481 29.3215 7.38481C28.9418 7.38481 28.6846 7.48929 28.5829 7.68505ZM83.1297 10.0012C82.9828 10.4965 82.5732 11.7898 82.2193 12.875C81.8656 13.9601 81.4357 15.292 81.2642 15.8345L80.9524 16.821H83.5172H86.082L85.1803 14.033C84.6845 12.4997 84.1326 10.7626 83.9542 10.1728C83.7756 9.5831 83.577 9.10048 83.513 9.10048C83.4491 9.10048 83.2765 9.50589 83.1297 10.0012ZM1.38098 12.7463C0.901523 13.3725 0.237219 15.3524 0.0716204 16.6494C-0.153802 18.413 0.164218 20.6276 0.866322 22.1845C1.6005 23.8129 2.24278 23.7348 2.73958 21.9572C2.90934 21.3498 3.40371 20.1671 3.83825 19.3288C4.35117 18.3389 4.57192 17.7375 4.46788 17.6131C4.09073 17.1619 2.892 14.5772 2.70108 13.8036C2.45745 12.8166 2.26671 12.5318 1.84951 12.5318C1.68218 12.5318 1.47132 12.6284 1.38098 12.7463ZM36.4709 12.6605C36.4274 12.7312 36.3017 13.1366 36.1919 13.5612C36.082 13.9859 35.5966 15.1535 35.1133 16.1563L34.2345 17.9792L34.8903 19.1397C35.2512 19.778 35.7553 20.9649 36.0107 21.7774C36.4232 23.0899 36.5245 23.2606 36.9186 23.3074C37.3027 23.3529 37.4208 23.2376 37.7974 22.4496C38.5876 20.7959 38.829 19.5048 38.7376 17.4215C38.623 14.8118 37.7475 12.5318 36.86 12.5318C36.6897 12.5318 36.5146 12.5898 36.4709 12.6605ZM5.00247 21.4871C4.50672 22.7308 4.24228 24.2535 4.30852 25.4851C4.36331 26.5051 4.37164 26.5197 5.20327 27.0696C6.18438 27.7184 8.50692 28.4876 9.48491 28.4876C10.7197 28.4876 10.6177 28.1108 8.32034 24.1838C6.55338 21.1635 6.20883 20.674 5.81833 20.6293C5.41656 20.5831 5.32431 20.6802 5.00247 21.4871ZM30.7599 23.718C28.3084 27.9037 28.3626 27.7918 28.5813 28.1961C28.9362 28.8523 31.4553 28.2981 33.5569 27.1015L34.4856 26.5727L34.414 24.6565C34.3571 23.1326 34.2557 22.5292 33.9189 21.7107C33.5706 20.8643 33.4156 20.6722 33.0471 20.6298C32.6342 20.5823 32.4546 20.8247 30.7599 23.718ZM47.7432 29.1167C47.6796 29.1795 47.6276 30.2604 47.6276 31.5186V33.8061H48.9914C50.1086 33.8061 50.4379 33.7418 50.8121 33.4505C51.3635 33.0214 51.4393 32.0846 50.9603 31.6187C50.6911 31.3568 50.6808 31.2597 50.8801 30.859C51.1915 30.2326 50.9858 29.5583 50.3902 29.2536C49.8983 29.0019 47.9605 28.9015 47.7432 29.1167ZM53.0315 30.9578C53.0967 33.1471 53.2399 33.4589 54.3467 33.8202C54.8078 33.9708 55.1176 33.9707 55.6269 33.8197C56.6361 33.5205 56.7938 33.1485 56.8316 30.9753C56.8629 29.168 56.8487 29.0856 56.4943 29.0331C56.1378 28.9805 56.1242 29.0403 56.1242 30.6678C56.1242 32.6613 55.9167 33.1199 55.0141 33.1199C54.0519 33.1199 53.87 32.7426 53.87 30.7473V29.0023H53.4216H52.9732L53.0315 30.9578ZM59.3556 29.3579C59.005 29.6307 58.8987 29.8654 58.8987 30.3662C58.8987 31.1386 59.075 31.3095 60.2966 31.7204C61.3518 32.0752 61.6845 32.4355 61.3384 32.8481C60.9821 33.2729 60.0201 33.1912 59.5559 32.6968C59.2769 32.3995 59.0844 32.3193 58.9086 32.4271C58.5035 32.6755 58.9654 33.4364 59.7074 33.7432C60.5051 34.0729 61.3936 33.9267 61.9526 33.3736C62.8037 32.5316 62.2223 31.4176 60.7385 31.0479C59.8562 30.8281 59.5349 30.551 59.692 30.1458C59.9197 29.5585 61.2243 29.6149 61.4185 30.2202C61.5772 30.715 62.1933 30.6431 62.1933 30.13C62.1933 29.52 61.4369 29.0023 60.546 29.0023C60.0665 29.0023 59.6542 29.1254 59.3556 29.3579ZM64.1007 31.4042C64.1007 33.8217 64.1021 33.8298 64.4909 33.7753C64.8734 33.7214 64.881 33.6756 64.881 31.4042C64.881 29.1328 64.8734 29.087 64.4909 29.0331C64.1021 28.9786 64.1007 28.9866 64.1007 31.4042ZM66.8752 31.4042V33.8061H67.3206H67.7659L67.7108 32.184C67.6803 31.2918 67.7156 30.6219 67.7893 30.6953C67.863 30.7685 68.3782 31.4792 68.9343 32.2744C69.7267 33.4076 70.0352 33.7203 70.3611 33.7203H70.7767V31.4042C70.7767 29.1328 70.7691 29.087 70.3865 29.0331C70.0037 28.9794 69.9964 29.0114 69.9964 30.7389V32.4995L68.7722 30.7509C67.932 29.5513 67.4422 29.0023 67.2116 29.0023C66.8947 29.0023 66.8752 29.1416 66.8752 31.4042ZM72.7708 31.3975V33.8061H74.3314C75.7764 33.8061 75.892 33.7807 75.892 33.463C75.892 33.155 75.7764 33.1199 74.7649 33.1199H73.6378V32.4336V31.7473H74.6782C75.603 31.7473 75.7186 31.7092 75.7186 31.4042C75.7186 31.0974 75.603 31.0611 74.6264 31.0611H73.5341L73.604 30.4683L73.6739 29.8755L74.7396 29.8249C75.6727 29.7807 75.8053 29.7316 75.8053 29.4312C75.8053 29.1179 75.673 29.0837 74.2881 29.0385L72.7708 28.9889V31.3975ZM78.3226 29.2229C77.7714 29.4988 77.5052 30.2206 77.724 30.8466C77.8577 31.2292 78.1017 31.3889 79.0147 31.6916C80.0454 32.0333 80.1404 32.1057 80.1404 32.5494C80.1404 32.9962 80.0833 33.0382 79.4109 33.0864C78.8277 33.1283 78.6368 33.0681 78.4589 32.7862C78.1962 32.3701 77.4527 32.3054 77.4527 32.6987C77.4527 33.1281 78.2323 33.7744 78.8997 33.8983C79.705 34.0477 80.7709 33.5532 80.988 32.9294C81.328 31.953 80.7126 31.2379 79.3188 30.99C78.4972 30.8439 78.1953 30.3678 78.6604 29.9514C79.0799 29.5758 79.9911 29.7378 80.1442 30.2151C80.2118 30.4261 80.4079 30.5464 80.684 30.5464C81.0513 30.5464 81.1003 30.4873 81.0051 30.1603C80.715 29.1642 79.375 28.696 78.3226 29.2229ZM83.2538 29.4235C82.4028 30.2653 82.7643 31.2441 84.0835 31.67C85.1682 32.02 85.4291 32.2018 85.4291 32.6077C85.4291 33.2046 84.0102 33.3396 83.6549 32.7767C83.5358 32.588 83.262 32.4336 83.0464 32.4336C82.2108 32.4336 82.843 33.5224 83.8526 33.8217C85.0751 34.1841 86.2961 33.4863 86.2961 32.4254C86.2961 31.8221 85.6866 31.2994 84.6974 31.0542C83.7825 30.8274 83.4629 30.5544 83.6245 30.1377C83.8517 29.5518 85.4291 29.6805 85.4291 30.2847C85.4291 30.4513 85.5909 30.5464 85.8743 30.5464C86.2537 30.5464 86.3029 30.4892 86.2072 30.1603C85.8739 29.0163 84.1101 28.5761 83.2538 29.4235ZM48.4946 30.4098C48.4946 31.0518 48.5041 31.0611 49.167 31.0611C49.8941 31.0611 50.2931 30.7488 50.1976 30.2544C50.1535 30.0263 49.9236 29.9215 49.3163 29.8522L48.4946 29.7585V30.4098ZM5.9078 30.0986C5.72989 30.5573 5.96191 31.0964 6.77707 32.1177C8.27821 33.9985 10.9361 35.4722 13.5279 35.861C15.6452 36.1786 16.1328 35.6333 14.8359 34.3986C14.0119 33.6142 13.0148 32.3216 12.4265 31.2755L12.0164 30.5464L10.7044 30.5434C9.98292 30.5417 8.84627 30.4177 8.17867 30.2679C6.11138 29.8036 6.02468 29.7971 5.9078 30.0986ZM31.3278 30.1349C30.8986 30.277 29.7055 30.4388 28.6761 30.4944L26.8048 30.5956L26.3468 31.386C25.7659 32.3881 24.321 34.216 23.7716 34.6436C23.2912 35.0174 23.2263 35.5487 23.6217 35.8733C23.8434 36.0555 24.1767 36.0453 25.4843 35.8159C27.8213 35.406 29.6271 34.4715 31.317 32.7975C32.8237 31.305 33.2265 30.6725 32.9495 30.235C32.7056 29.8503 32.2694 29.8234 31.3278 30.1349ZM15.0657 30.7493C14.6498 31.1607 14.8723 31.6288 16.0251 32.7676C17.2363 33.9643 18.833 35.0026 19.4663 35.0056C20.0069 35.008 21.7893 33.8029 22.9064 32.6798C23.7328 31.8491 23.8811 31.6073 23.837 31.1619L23.7848 30.6321L19.5308 30.5863C16.3676 30.5522 15.2226 30.5941 15.0657 30.7493ZM48.4946 32.4336V33.1199H49.2402C50.0696 33.1199 50.402 32.8944 50.402 32.3319C50.402 31.8894 50.1036 31.7473 49.174 31.7473C48.497 31.7473 48.4946 31.7497 48.4946 32.4336Z" fill="white"/>
</svg>
